<ttFont>
<head>
    <!-- Most of this table will be recalculated by the compiler -->
    <tableVersion value="1.0"/>
    <fontRevision value="2.04"/>
    <checkSumAdjustment value="0x2ebb8100"/>
    <magicNumber value="0x5f0f3cf5"/>
    <flags value="00000000 00000011"/>
    <unitsPerEm value="1000"/>
    <created value="Sun Oct  7 02:24:28 2018"/>
    <modified value="Fri Apr  9 20:39:37 2021"/>
    <xMin value="-457"/>
    <yMin value="-316"/>
    <xMax value="2157"/>
    <yMax value="1009"/>
    <macStyle value="00000000 00000001"/>
    <lowestRecPPEM value="3"/>
    <fontDirectionHint value="2"/>
    <indexToLocFormat value="0"/>
    <glyphDataFormat value="0"/>
  </head>
          <CharString index="0">
            -103 callsubr
            -220 -270 -104 callgsubr
            return
          </CharString>
          <CharString index="1">
            49 34 30 47 46 -34 31 -49 -49 -34 -31 -46 -47 34 -30 49 hvcurveto
            endchar
          </CharString>
          <CharString index="2">
            rmoveto
            -107 callsubr
            return
          </CharString>
          <CharString index="3">
            230 -105 callgsubr
            return
          </CharString>
          <CharString index="4">
            18 65 17 76 16 69 rrcurveto
            4 hlineto
            17 -68 18 -77 18 -65 15 -60 rcurveline
            -139 hlineto
            return
          </CharString>
          <CharString index="5">
            10 -51 rlineto
            120 284 hlineto
            -100 callsubr
            return
          </CharString>
          <CharString index="6">
            151 vstem
            -96 callsubr
            return
          </CharString>
          <CharString index="7">
            152 -70 72 -127 -78 -71 -27 -38 -63 vhcurveto
            53 -97 rlineto
            28 48 41 17 42 hhcurveto
            54 21 -28 -44 3 hvcurveto
            return
          </CharString>
          <CharString index="8">
            124 -271 150 222 123 -222 131 261 124 -408 return
          </CharString>
          <CharString index="9">
            -39 -29 -22 -16 -37 hhcurveto
            -43 -19 23 71 hvcurveto
            289 -147 -308 vlineto
            -124 46 -76 108 vhcurveto
            return
          </CharString>
          <CharString index="10">
            -23 callsubr
            38 34 30 104 14 hvcurveto
            -87 vlineto
            -26 -26 -22 -16 -33 hhcurveto
            return
          </CharString>
          <CharString index="11">
            342 -12 -107 callgsubr
            return
          </CharString>
          <CharString index="12">
            189 -93 callgsubr
            return
          </CharString>
          <CharString index="13">
            hstem
            -6 585 vstem
            -104 callsubr
            return
          </CharString>
          <CharString index="14">
            -12 rmoveto
            135 90 76 100 84 -49 49 -61 33 107 callgsubr
            44 29 39 49 61 vvcurveto
            105 -77 69 -116 -118 -85 -67 -108 -67 36 -46 49 -37 76 callsubr
            -60 -32 -48 -47 -77 vvcurveto
            -103 94 -71 127 vhcurveto
            hintmask 11011000
            40 382 rmoveto
            -65 25 -44 25 52 vvcurveto
            49 32 24 39 48 29 -33 -49 -33 -14 -31 -25 -29 vhcurveto
            hintmask 11100100
            -37 -280 rmoveto
            -53 -45 33 56 39 21 36 28 26 hvcurveto
            80 -34 54 -21 -56 vvcurveto
            -53 -36 -26 -49 vhcurveto
            endchar
          </CharString>
          <CharString index="15">
            hstem
            356 125 vstem
            -106 callgsubr
            return
          </CharString>
          <CharString index="16">
            rmoveto
            37 22 16 25 29 27 -21 -56 7 vhcurveto
            -19 -16 -21 -10 -22 hhcurveto
            -32 -19 19 34 hvcurveto
            27 -279 rmoveto
            115 67 85 124 124 -60 81 -106 -78 -61 -59 -79 -75 47 -48 75 32 29 12 22 23 hvcurveto
            -65 -7 -26 -40 -57 hhcurveto
            -27 -20 12 14 -19 hvcurveto
            -42 -67 rlineto
            -20 23 35 -21 57 hhcurveto
            endchar
          </CharString>
          <CharString index="17">
            124 150 -51 callgsubr
            return
          </CharString>
          <CharString index="18">
            293 rmoveto
            48 35 -25 -67 -72 -36 -31 -44 -44 -42 32 100 -13 hvcurveto
            45 26 37 18 33 hhcurveto
            6 -305 rmoveto
            115 96 81 132 134 -80 62 -109 -39 -55 -25 -42 -33 hvcurveto
            148 5 56 50 70 hhcurveto
            37 40 -21 -24 22 hvcurveto
            77 88 rlineto
            41 -40 -61 35 -84 hhcurveto
            -134 -123 -107 -237 -223 117 -92 123 hvcurveto
            endchar
          </CharString>
          <CharString index="19">
            -74 callgsubr
            -53 callsubr
            hlineto
            return
          </CharString>
          <CharString index="20">
            242 -12 rmoveto
            -63 callsubr
            return
          </CharString>
          <CharString index="21">
            90 callgsubr
            hstemhm
            77 88 callgsubr
            140 hintmask 01011100
            104 callgsubr
            hintmask 01101100
            -54 callgsubr
            hintmask 10011100
            -52 callgsubr
            hlineto
            return
          </CharString>
          <CharString index="22">
            rmoveto
            72 72 -154 182 -99 -97 rlineto
            endchar
          </CharString>
          <CharString index="23">
            -53 79 callsubr
            189 147 vstem
            -95 callsubr
            return
          </CharString>
          <CharString index="24">
            -26 callsubr
            hintmask 11110000
            -82 callgsubr
            hintmask 11101000
            -22 callgsubr
          </CharString>
          <CharString index="25">
            281 -12 rmoveto
            54 61 16 43 49 hvcurveto
            -71 callgsubr
            -165 107 -95 138 hvcurveto
            return
          </CharString>
          <CharString index="26">
            214 -61 callgsubr
            return
          </CharString>
          <CharString index="27">
            -20 callgsubr
            17 callsubr
            hintmask 1111010001000000
            -50 callsubr
            hintmask 1111000110000000
            -78 callgsubr
            hintmask 1110101010000000
            -41 callgsubr
            hintmask 1111000110000000
            -43 callsubr
            hintmask 1111010010000000
            -46 -26 -25 -33 -41 vvcurveto
            hintmask 1111010001000000
            36 callsubr
            hintmask 1110101010000000
            -47 callgsubr
            hintmask 1111010001000000
            -72 callsubr
            return
          </CharString>
          <CharString index="28">
            74 callsubr
            -75 callsubr
            return
          </CharString>
          <CharString index="29">
            -22 -39 callsubr
            hstem
            61 149 161 151 vstem
            -96 callgsubr
            return
          </CharString>
          <CharString index="30">
            -30 -72 callgsubr
            return
          </CharString>
          <CharString index="31">
            0 callgsubr
            225 -272 return
          </CharString>
          <CharString index="32">
            hstem
            14 786 -89 callgsubr
            return
          </CharString>
          <CharString index="33">
            -135 -12 50 callsubr
            -55 callgsubr
            return
          </CharString>
          <CharString index="34">
            -38 callgsubr
            -12 -20 return
          </CharString>
          <CharString index="35">
            12 -365 rmoveto
            -66 -44 20 37 18 9 15 18 16 hvcurveto
            -4 16 20 -2 34 hhcurveto
            51 hlineto
            49 27 -8 -31 -34 -48 -27 -66 hvcurveto
            return
          </CharString>
          <CharString index="36">
            112 105 21 callgsubr
            return
          </CharString>
          <CharString index="37">
            rmoveto
            85 hlineto
            352 676 rlineto
            -85 hlineto
            return
          </CharString>
          <CharString index="38">
            -34 callsubr
            147 return
          </CharString>
          <CharString index="39">
            -51 -12 -32 callgsubr
            return
          </CharString>
          <CharString index="40">
            -18 64 callsubr
            -8 -4 0 -6 hhcurveto
            -12 -14 10 31 hvcurveto
            return
          </CharString>
          <CharString index="41">
            hstem
            46 151 253 130 vstem
            -95 callgsubr
            return
          </CharString>
          <CharString index="42">
            -62 vlineto
            63 30 -17 -34 -30 -25 -17 -31 -33 -26 15 33 -24 hvcurveto
            -65 -51 rlineto
            return
          </CharString>
          <CharString index="43">
            190 -12 rmoveto
            56 46 26 37 42 hvcurveto
            4 hlineto
            return
          </CharString>
          <CharString index="44">
            48 49 26 35 40 callgsubr
            return
          </CharString>
          <CharString index="45">
            rlineto
            4 hlineto
            return
          </CharString>
          <CharString index="46">
            31 18 27 31 37 vvcurveto
            67 -60 40 -77 -75 -61 -40 -67 -40 24 -27 34 -24 vhcurveto
            -4 vlineto
            return
          </CharString>
          <CharString index="47">
            51 38 40 52 53 -38 40 -51 -51 return
          </CharString>
          <CharString index="48">
            77 -88 callsubr
            return
          </CharString>
          <CharString index="49">
            rmoveto
            42 81 40 77 -62 callsubr
            -6 -117 rlineto
            -41 vlineto
            -157 vmoveto
            96 87 58 59 callsubr
            hlineto
            -141 -249 rlineto
            -54 179 vlineto
            return
          </CharString>
          <CharString index="50">
            -33 -24 -25 -12 -32 hhcurveto
            return
          </CharString>
          <CharString index="51">
            90.5 -90.5 244.5 -90 106 return
          </CharString>
          <CharString index="52">
            rmoveto
            129 hlineto
            -50 callgsubr
            150 37 124 vvcurveto
            118 -82 53 -107 -78 -66 -37 -54 -47 vhcurveto
            81 -74 rlineto
            27 27 27 19 37 hhcurveto
            40 27 -22 -41 -75 -146 -57 20 -137 hvcurveto
            return
          </CharString>
          <CharString index="53">
            -23 107 rlineto
            -5 -13 -18 -5 -16 hhcurveto
            -39 -25 23 56 hvcurveto
            return
          </CharString>
          <CharString index="54">
            29 callsubr
            -251 -225 24 callsubr
            return
          </CharString>
          <CharString index="55">
            65 hmoveto
            143 122 hlineto
            63 71 112 -193 rlineto
            159 hlineto
            -187 292 174 204 rlineto
            -160 hlineto
            -157 -197 rlineto
            -4 402 -143 hlineto
            return
          </CharString>
          <CharString index="56">
            -50 -50 callgsubr
            166 104 155 82 callsubr
            hintmask 11101000
            243 -12 rmoveto
            128 108 67 118 82 -53 52 -73 21 86 callsubr
            68 29 38 46 66 vvcurveto
            111 -88 63 -131 -78 -64 -31 -50 -58 vhcurveto
            74 -90 rlineto
            35 40 34 21 45 hhcurveto
            50 28 -26 -44 -51 -36 -34 -114 hvcurveto
            -104 vlineto
            hintmask 11101000
            138 33 -35 -56 -48 -41 -27 -62 -54 -47 27 37 -38 hvcurveto
            -68 -93 rlineto
            -54 46 72 -36 103 hhcurveto
            endchar
          </CharString>
          <CharString index="57">
            242 -211 rmoveto
            170 107 75 103 89 -67 37 -122 hvcurveto
            return
          </CharString>
          <CharString index="58">
            -10 -12 -7 callgsubr
            return
          </CharString>
          <CharString index="59">
            vstem
            -46 callgsubr
            return
          </CharString>
          <CharString index="60">
            70 31 46 61 96 vvcurveto
            155 -113 48 -138 vhcurveto
            -235 hlineto
            return
          </CharString>
          <CharString index="61">
            38 hmoveto
            398 115 -215 hlineto
            208 303 rlineto
            78 -368 18 callgsubr
            return
          </CharString>
          <CharString index="62">
            -162 80 -98 123 return
          </CharString>
          <CharString index="63">
            -26 callgsubr
            6 54 rlineto
            return
          </CharString>
          <CharString index="64">
            -32 -22 -24 -35 -36 vvcurveto
            -41 20 -26 26 -17 vhcurveto
            -4 vlineto
            return
          </CharString>
          <CharString index="65">
            96 21 4 callgsubr
            251 -20 9 callgsubr
            225 148 vstem
            -59 callsubr
            endchar
          </CharString>
          <CharString index="66">
            rmoveto
            79 23 45 55 76 vvcurveto
            62 -26 35 -45 -36 -29 -25 -35 -39 30 -21 33 vhcurveto
            4 hlineto
            1 -37 -27 -23 -51 -16 rrcurveto
            endchar
          </CharString>
          <CharString index="67">
            52 callgsubr
            -134 -49 -86 -105 hvcurveto
            return
          </CharString>
          <CharString index="68">
            -12 -22 callsubr
            return
          </CharString>
          <CharString index="69">
            -64 67 callgsubr
            hstem
            14 486 vstem
            14 hmoveto
            152 hlineto
            39 82 12 29 14 29 12 28 rlinecurve
            4 hlineto
            16 -28 15 -30 16 -28 48 -82 rcurveline
            158 hlineto
            -153 241 144 255 rlineto
            -152 hlineto
            -34 -80 -11 -28 -13 -29 -10 -28 rlinecurve
            -4 hlineto
            -14 28 -15 29 -13 28 -44 80 49 callgsubr
            143 -238 rlineto
            endchar
          </CharString>
          <CharString index="70">
            -21 528 124 hstem
            204 148 vstem
            -33 callgsubr
            return
          </CharString>
          <CharString index="71">
            -278 6 167 139 185 hstemhm
            61 178 -80 97 hintmask 11100000
            -1 callsubr
            -74 -506 rmoveto
            hintmask 11010000
            117 35 63 83 110 vvcurveto
            87 -36 52 -66 -51 -41 -33 -51 -53 42 -30 47 vhcurveto
            3 2 0 3 hhcurveto
            1 -50 -40 -46 -74 -26 rrcurveto
            endchar
          </CharString>
          <CharString index="72">
            rmoveto
            183 76 vlineto
            77 42 -22 -64 -64 -42 -33 -77 hvcurveto
            return
          </CharString>
          <CharString index="73">
            9 callgsubr
            vstem
            77 hmoveto
            return
          </CharString>
          <CharString index="74">
            35 21 -21 235 117 183 117 9 callgsubr
            195 144 vstem
            77 hmoveto
            -11 callgsubr
            -47 callsubr
            147 -300 -35 callsubr
            return
          </CharString>
          <CharString index="75">
            12 53 -62 callsubr
            -43 39 46 -22 44 hhcurveto
            -34 120 14 callsubr
            203 vlineto
            31 28 27 14 30 hhcurveto
            59 27 -45 -89 -102 -41 -44 -51 hvcurveto
            return
          </CharString>
          <CharString index="76">
            28 vlineto
            111 74 -48 -156 -156 -74 -54 -111 hvcurveto
            return
          </CharString>
          <CharString index="77">
            36 -196 -27 callgsubr
            return
          </CharString>
          <CharString index="78">
            rmoveto
            87 62 50 62 49 -31 35 -39 81 callsubr
            return
          </CharString>
          <CharString index="79">
            vlineto
            67 26 46 24 37 hhcurveto
            21 15 -3 -5 18 hvcurveto
            return
          </CharString>
          <CharString index="80">
            39 callsubr
            62 callsubr
            hlineto
            return
          </CharString>
          <CharString index="81">
            rmoveto
            80 71 49 72 46 -31 32 -40 16 hvcurveto
            return
          </CharString>
          <CharString index="82">
            hmoveto
            418 -99 callsubr
            hlineto
            return
          </CharString>
          <CharString index="83">
            82 117 64 48 91 hstemhm
            77.5 -56 callsubr
            hintmask 11110100
            187 return
          </CharString>
          <CharString index="84">
            rmoveto
            -35 -22 15 32 return
          </CharString>
          <CharString index="85">
            127 422 127 return
          </CharString>
          <CharString index="86">
            -73 callsubr
            53 callsubr
            return
          </CharString>
          <CharString index="87">
            hmoveto
            -16 callsubr
            return
          </CharString>
          <CharString index="88">
            21 71 callsubr
            return
          </CharString>
          <CharString index="89">
            325 -12 rmoveto
            107 102 98 171 152 -75 99 -120 -46 -47 -21 -34 -38 hvcurveto
            4 76 rlineto
            172 -147 vlineto
            return
          </CharString>
          <CharString index="90">
            0 -15 callsubr
            return
          </CharString>
          <CharString index="91">
            1 callgsubr
            51 callsubr
            vhcurveto
            return
          </CharString>
          <CharString index="92">
            124 404 124 return
          </CharString>
          <CharString index="93">
            36 21 -21 652 -20 hstem
            77 147 vstem
            1 callsubr
            endchar
          </CharString>
          <CharString index="94">
            178 -160.5 143 -130 117 return
          </CharString>
          <CharString index="95">
            -196 -20 -83 -57 return
          </CharString>
          <CharString index="96">
            -36 -20 -36 -36 -45 vvcurveto
            -61 62 -50 88 vhcurveto
            return
          </CharString>
          <CharString index="97">
            -482 -12 676 hstem
            -171 437 vstem
            -171 34 callsubr
            endchar
          </CharString>
          <CharString index="98">
            rlineto
            32 -34 -33 20 -55 68 callsubr
            return
          </CharString>
          <CharString index="99">
            -12 rmoveto
            33 25 5 7 16 hvcurveto
            return
          </CharString>
          <CharString index="100">
            hmoveto
            147 232 hlineto
            return
          </CharString>
          <CharString index="101">
            77 23 callgsubr
            147 -533 rmoveto
            414 -31 callsubr
            return
          </CharString>
          <CharString index="102">
            -12 24 callgsubr
            return
          </CharString>
          <CharString index="103">
            hstem
            288 147 vstem
            226 -12 rmoveto
            144 65 103 126 hvcurveto
            435 -147 -423 vlineto
            -87 -28 -27 -53 -33 -34 21 44 -24 vhcurveto
            -100 -74 rlineto
            -79 45 66 -39 99 hhcurveto
            return
          </CharString>
          <CharString index="104">
            hstemhm
            34 121 -107 137 -126 116 return
          </CharString>
          <CharString index="105">
            131 124 return
          </CharString>
          <CharString index="106">
            150 312 rmoveto
            -83 callgsubr
            return
          </CharString>
          <CharString index="107">
            90 -20 callsubr
            return
          </CharString>
          <CharString index="108">
            77 hmoveto
            147 175 hlineto
            76 100 159 -275 rlineto
            161 hlineto
            -233 392 197 260 rlineto
            -162 hlineto
            -194 -267 rlineto
            -4 267 -147 hlineto
            return
          </CharString>
          <CharString index="109">
            120 280 return
          </CharString>
          <CharString index="110">
            rmoveto
            44 callsubr
            hvcurveto
            -54 callsubr
            return
          </CharString>
          <CharString index="111">
            60 -12 22 callsubr
            return
          </CharString>
          <CharString index="112">
            73 148 228 142 return
          </CharString>
          <CharString index="113">
            154 hstemhm
            55 19 callsubr
            return
          </CharString>
          <CharString index="114">
            120 -87 -21 388 120 return
          </CharString>
          <CharString index="115">
            106 -39 callsubr
            return
          </CharString>
          <CharString index="116">
            652 -147 return
          </CharString>
          <CharString index="117">
            rmoveto
            -2 callgsubr
          </CharString>
          <CharString index="118">
            6 -14 -17 4 -28 hhcurveto
            -51 -54 -32 -67 -36 hvcurveto
            -4 hlineto
            return
          </CharString>
          <CharString index="119">
            109 390 -86 hlineto
            return
          </CharString>
          <CharString index="120">
            87 -5 callsubr
            return
          </CharString>
          <CharString index="121">
            rmoveto
            -25 -28 8 24 -26 hvcurveto
            return
          </CharString>
          <CharString index="122">
            hhcurveto
            42 19 -22 return
          </CharString>
          <CharString index="123">
            264 -12 rmoveto
            136 91 116 216 216 -91 111 -136 -136 -91 -111 -216 -216 91 -116 136 hvcurveto
            return
          </CharString>
          <CharString index="124">
            -3 callsubr
            146 127 -69 140 return
          </CharString>
          <CharString index="125">
            66 -66 109 hstemhm
            165 109 hintmask 01100000
            165 return
          </CharString>
          <CharString index="126">
            166 -156 147 return
          </CharString>
          <CharString index="127">
            vvcurveto
            38 callgsubr
            return
          </CharString>
          <CharString index="128">
            148 hmoveto
            168 hlineto
            44 198 rlineto
            return
          </CharString>
          <CharString index="129">
            127 132 120 170 127 return
          </CharString>
          <CharString index="130">
            98 -84 95 82 96 -85 97 return
          </CharString>
          <CharString index="131">
            251 -147 return
          </CharString>
          <CharString index="132">
            0 -20 hstemhm
            77 132 return
          </CharString>
          <CharString index="133">
            -54 callsubr
            199 return
          </CharString>
          <CharString index="134">
            149 hstem
            208 147 vstem
            70 hmoveto
            404 74 callgsubr
            return
          </CharString>
          <CharString index="135">
            -100 34 -66 101 vhcurveto
            return
          </CharString>
          <CharString index="136">
            652 -148 return
          </CharString>
          <CharString index="137">
            10 -49 rlineto
            83 callgsubr
            -169 hlineto
            17 callgsubr
            hvcurveto
            return
          </CharString>
          <CharString index="138">
            82 98 35 callsubr
            hintmask 11101000
            186 return
          </CharString>
          <CharString index="139">
            50 51 28 75 49 hvcurveto
            -76 59 rlineto
            -37 -21 -23 -21 -28 hhcurveto
            return
          </CharString>
          <CharString index="140">
            -21 461 191 25 callsubr
            return
          </CharString>
          <CharString index="141">
            -12 -70 callsubr
            return
          </CharString>
          <CharString index="142">
            62 90 82 hstemhm
            217 106 -92 106 return
          </CharString>
          <CharString index="143">
            -88 92 -38 116 vhcurveto
            return
          </CharString>
          <CharString index="144">
            62 callgsubr
            5 return
          </CharString>
          <CharString index="145">
            39 callsubr
            hlineto
            return
          </CharString>
          <CharString index="146">
            65 hmoveto
            147 return
          </CharString>
          <CharString index="147">
            19 callgsubr
            hintmask 10100000
            3 callgsubr
            hintmask 01100000
            -66 89 vlineto
            endchar
          </CharString>
          <CharString index="148">
            -237 21 -21 381 111.5 -111.5 115 101 116 0 -20 return
          </CharString>
          <CharString index="149">
            116 -106 116 71 callgsubr
            return
          </CharString>
          <CharString index="150">
            129 hstem
            41 126 vstem
            104 return
          </CharString>
          <CharString index="151">
            48 36 10 8 26 return
          </CharString>
          <CharString index="152">
            73 63 callgsubr
            endchar
          </CharString>
          <CharString index="153">
            7 callsubr
            193 -20 hstemhm
            return
          </CharString>
          <CharString index="154">
            21 -21 callsubr
            return
          </CharString>
          <CharString index="155">
            460 104 -460 hlineto
            return
          </CharString>
          <CharString index="156">
            115 266 115 return
          </CharString>
          <CharString index="157">
            109 302 109 return
          </CharString>
          <CharString index="158">
            16 18 -4 -6 17 return
          </CharString>
          <CharString index="159">
            -196 115 return
          </CharString>
          <CharString index="160">
            hstemhm
            65 147 return
          </CharString>
          <CharString index="161">
            hintmask 11101000
            -27 callsubr
            return
          </CharString>
          <CharString index="162">
            70 158 75 hstem
            214 96 vstem
            134 return
          </CharString>
          <CharString index="163">
            rmoveto
            96 hlineto
            21 306 rlineto
            return
          </CharString>
          <CharString index="164">
            571 hstem
            63 102 vstem
            154 return
          </CharString>
          <CharString index="165">
            120 hstem
            108 69 vstem
            53 return
          </CharString>
          <CharString index="166">
            70 -58 233 -134 return
          </CharString>
          <CharString index="167">
            rmoveto
            150 hlineto
            return
          </CharString>
          <CharString index="168">
            332 hstem
            78.5 143 return
          </CharString>
          <CharString index="169">
            496 -147 return
          </CharString>
          <CharString index="170">
            -40 callsubr
            -26 -169 vlineto
            return
          </CharString>
          <CharString index="171">
            109 rlineto
            -2 return
          </CharString>
          <CharString index="172">
            -91 -59 -34 -67 -63 vhcurveto
            80 -79 rlineto
            return
          </CharString>
          <CharString index="173">
            -195 85 callsubr
            return
          </CharString>
          <CharString index="174">
            135 182 134 vstem
            return
          </CharString>
          <CharString index="175">
            hhcurveto
            -105 -101 -98 -162 return
          </CharString>
          <CharString index="176">
            26 -6 41 hhcurveto
            return
          </CharString>
          <CharString index="177">
            132 -122 return
          </CharString>
          <CharString index="178">
            -21 652 -20 return
          </CharString>
          <CharString index="179">
            hlineto
            hintmask 11010000
            101 78 hlineto
            hintmask 11100000
            -211 hlineto
            endchar
          </CharString>
          <CharString index="180">
            0 124 408 115 hstem
            313 140 vstem
            return
          </CharString>
          <CharString index="181">
            235 0 141 511 -20 return
          </CharString>
          <CharString index="182">
            66 callgsubr
            -67 return
          </CharString>
          <CharString index="183">
            vhcurveto
            -4 vlineto
            hintmask 11100100
            return
          </CharString>
          <CharString index="184">
            528 -147 hlineto
            return
          </CharString>
          <CharString index="185">
            -6 rlineto
            -109 return
          </CharString>
          <CharString index="186">
            -19 callsubr
            hstem
            return
          </CharString>
          <CharString index="187">
            -12 185 -164 -21 return
          </CharString>
          <CharString index="188">
            21 hvcurveto
            4 vlineto
            return
          </CharString>
          <CharString index="189">
            115 hstemhm
            311 148 -127 147 return
          </CharString>
          <CharString index="190">
            33 callgsubr
            -72 hvcurveto
            return
          </CharString>
          <CharString index="191">
            134 182 136 vstem
            return
          </CharString>
          <CharString index="192">
            -12 73 callgsubr
            return
          </CharString>
          <CharString index="193">
            hvcurveto
            4 vlineto
            hintmask 11110000
            return
          </CharString>
          <CharString index="194">
            24 127 rlineto
            return
          </CharString>
          <CharString index="195">
            153 147 return
          </CharString>
          <CharString index="196">
            rmoveto
            hintmask 11010000
            211 78 hlineto
            hintmask 11100000
            -101 return
          </CharString>
          <CharString index="197">
            276 -12 rmoveto
            return
          </CharString>
          <CharString index="198">
            110 -110 return
          </CharString>
          <CharString index="199">
            -88 vhcurveto
            -63 -78 19 hlineto
            42 11 return
          </CharString>
          <CharString index="200">
            -134 -12 -211 rrcurveto
            endchar
          </CharString>
          <CharString index="201">
            -4 -4 -32 hvcurveto
            return
          </CharString>
          <CharString index="202">
            -50 278 104 hstem
            return
          </CharString>
          <CharString index="203">
            rmoveto
            476 83 -476 hlineto
            endchar
          </CharString>
          <CharString index="204">
            21 -21 152 112 245 126 hstem
            return
          </CharString>
          <CharString index="205">
            78 hstemhm
            114 123 -49 125 hintmask 11110000
            46 return
          </CharString>
        <CharString name=".notdef">
          112 endchar
        </CharString>
        <CharString name="A">
          -5 21 -21 155 115 270 112 -94 callsubr
          endchar
        </CharString>
        <CharString name="B">
          -67 callgsubr
        </CharString>
        <CharString name="C">
          -44 callgsubr
          endchar
        </CharString>
        <CharString name="D">
          57 0 119 414 119 9 callgsubr
          213 151 vstem
          -6 callsubr
          endchar
        </CharString>
        <CharString name="E">
          -66 callgsubr
          endchar
        </CharString>
        <CharString name="F">
          121 callgsubr
          -69 callsubr
          253 226 124 -226 151 264 124 -411 hlineto
          endchar
        </CharString>
        <CharString name="G">
          4 callsubr
          -66 callsubr
          endchar
        </CharString>
        <CharString name="H">
          -42 callsubr
        </CharString>
        <CharString name="I">
          -21 callgsubr
          endchar
        </CharString>
        <CharString name="J">
          7 callgsubr
        </CharString>
        <CharString name="K">
          -14 callsubr
        </CharString>
        <CharString name="L">
          -60 0 124 528 -20 -34 callsubr
          405 124 -258 77 callsubr
          endchar
        </CharString>
        <CharString name="M">
          184 21 33 callsubr
          342 134 hintmask 10111000
          77 hmoveto
          132 239 hlineto
          hintmask 11011000
          -86 callgsubr
          endchar
        </CharString>
        <CharString name="N">
          -86 callsubr
          endchar
        </CharString>
        <CharString name="O">
          -92 callgsubr
          endchar
        </CharString>
        <CharString name="P">
          -35 callgsubr
        </CharString>
        <CharString name="Q">
          106 -182 118 85 -21 537 98 callgsubr
          290 151 vstem
          342 108 rmoveto
          -89 -56 82 139 130 56 78 89 89 56 -78 -130 -139 -56 -82 -89 hvcurveto
          215 -290 rmoveto
          50 41 10 12 24 hvcurveto
          -26 107 rlineto
          -6 -19 -25 -5 -28 hhcurveto
          -55 -58 18 46 -30 hvcurveto
          126 36 81 118 175 20 callsubr
          -184 90 -121 139 -29 vhcurveto
          -102 46 98 -75 138 hhcurveto
          endchar
        </CharString>
        <CharString name="R">
          -33 callsubr
          endchar
        </CharString>
        <CharString name="S">
          -78 callsubr
          endchar
        </CharString>
        <CharString name="T">
          -22 21 -37 callsubr
          endchar
        </CharString>
        <CharString name="U">
          -59 callgsubr
          endchar
        </CharString>
        <CharString name="V">
          -22 0 139 -118 71 callsubr
          hstemhm
          -7 570 hintmask 01110000
          190 hmoveto
          177 hlineto
          196 652 47 callgsubr
          -77 -304 rlineto
          hintmask 10110000
          -19 -71 -14 -66 -19 -72 rrcurveto
          -4 hlineto
          -20 72 -13 66 -20 71 -78 304 rcurveline
          -156 hlineto
          endchar
        </CharString>
        <CharString name="W">
          -79 callsubr
          endchar
        </CharString>
        <CharString name="X">
          -56 callgsubr
        </CharString>
        <CharString name="Y">
          -84 callsubr
          endchar
        </CharString>
        <CharString name="Z">
          -37 -17 callsubr
          hstem
          36 472 -48 callsubr
          endchar
        </CharString>
        <CharString name="a">
          -68 callsubr
          56 callgsubr
          hintmask 10111000
          -64 callsubr
          hintmask 01111000
          -102 callgsubr
          hintmask 10111000
          -97 callgsubr
          endchar
        </CharString>
        <CharString name="ampersand">
          89 -12 112 467 97 hstemhm
          25 139 -60 121 104 112 hintmask 11011000
          225 494 rmoveto
          45 26 28 33 31 14 -20 -31 -44 -36 -28 -47 -28 vhcurveto
          -13 27 -8 27 24 vvcurveto
          hintmask 11101000
          17 -506 rmoveto
          82 68 25 41 55 hvcurveto
          56 -32 57 -23 54 -11 35 119 rcurveline
          -33 5 -39 15 -41 21 50 68 35 73 24 79 rrcurveto
          -134 hlineto
          -16 -61 -26 -52 -33 -43 -48 35 -46 41 -37 43 rrcurveto
          68 46 68 54 85 vvcurveto
          90 -62 58 -98 vhcurveto
          hintmask 11011000
          -109 -68 -78 -93 -41 15 -47 25 -47 hvcurveto
          hintmask 11101000
          -64 -41 -55 -52 -91 vvcurveto
          -100 75 -86 142 vhcurveto
          -78 195 rmoveto
          30 18 25 26 23 vhcurveto
          38 -48 47 -46 50 -41 rrcurveto
          -17 -27 -28 -9 -27 hhcurveto
          -58 -39 34 49 hvcurveto
          endchar
        </CharString>
        <CharString name="asciicircum">
          -50 274 396 -133 133 hstemhm
          50 428 hintmask 10100000
          50 274 rmoveto
          121 hlineto
          46 128 rlineto
          hintmask 01100000
          45 135 -62 callsubr
          45 -135 46 -128 rlineto
          121 hlineto
          -155 396 rlineto
          -118 hlineto
          endchar
        </CharString>
        <CharString name="asciitilde">
          -50 240 104 -28 104 hstemhm
          29 470 hintmask 10100000
          349 240 rmoveto
          32 callsubr
          hintmask 01100000
          28 callgsubr
          hintmask 10100000
          55 34 -76 83 hhcurveto
          endchar
        </CharString>
        <CharString name="asterisk">
          -121 349 363 hstem
          183.5 90 vstem
          148 349 rmoveto
          81 89 80 -89 61 44 -59 104 108 49 -24 72 -115 -25 -13 119 rlineto
          -77 hlineto
          -13 -118 -116 24 -23 -72 108 -49 -59 -104 rlineto
          endchar
        </CharString>
        <CharString name="at">
          325 -172 89 121 91 -81 92 209 86 -86 94 137 89 hstemhm
          49 99 109 111 393 93 hintmask 1100111110000000
          428 -172 rmoveto
          71 64 15 33 61 hvcurveto
          -32 80 rlineto
          -22 -42 -58 -17 -52 hhcurveto
          -156 -136 95 197 225 169 146 171 196 77 -128 -143 -110 -59 -70 -60 -45 -15 28 58 14 hvcurveto
          hintmask 1101011110000000
          46 220 rlineto
          -91 hlineto
          hintmask 1010111110000000
          -14 -42 rlineto
          -2 hlineto
          36 -17 -26 14 -33 hhcurveto
          -115 -87 -123 -122 -92 53 -58 79 41 51 27 39 28 hvcurveto
          2 hlineto
          hintmask 1100111110000000
          -48 11 47 -28 57 hhcurveto
          105 123 92 183 209 -138 147 -216 -246 -205 -184 -280 -255 179 -122 200 hvcurveto
          hintmask 1010111110000000
          -8 312 rmoveto
          -33 -19 22 45 60 36 82 60 20 16 -10 -19 10 hvcurveto
          -24 -135 rlineto
          -33 -25 -20 -12 -21 hhcurveto
          endchar
        </CharString>
        <CharString name="b">
          -5 -12 46 callsubr
          65 147 171 151 hintmask 10111100
          -18 callsubr
          hintmask 01111100
          -701 115 vlineto
          hintmask 10111100
          -32 callsubr
          endchar
        </CharString>
        <CharString name="backslash">
          -239 -160 870 hstem
          28 298 vstem
          230 -160 rmoveto
          96 hlineto
          -202 870 rlineto
          -96 hlineto
          endchar
        </CharString>
        <CharString name="bar">
          -310 106 callgsubr
          vstem
          86 -250 rmoveto
          96 1000 -96 hlineto
          endchar
        </CharString>
        <CharString name="braceleft">
          108 callgsubr
          309 86 309 120 callgsubr
          -152 rmoveto
          63 78 -19 hlineto
          -41 -12 15 55 hvcurveto
          54 4 48 61 vvcurveto
          76 -24 29 -50 12 vhcurveto
          4 vlineto
          50 12 24 29 76 61 -4 48 54 vvcurveto
          55 12 15 116 callgsubr
          -34 -108 hvcurveto
          -71 10 -37 -63 vvcurveto
          hintmask 11110000
          -35 -21 -37 -65 -2 vhcurveto
          -86 vlineto
          hintmask 11101000
          65 -2 21 -37 -35 -63 -10 -37 -71 vvcurveto
          -108 40 -34 88 vhcurveto
          endchar
        </CharString>
        <CharString name="braceright">
          108 callgsubr
          309 86 309 98 callsubr
          -152 rmoveto
          63 hlineto
          88 40 34 108 hvcurveto
          71 -10 37 63 vvcurveto
          hintmask 11101000
          35 21 37 65 2 vhcurveto
          86 vlineto
          hintmask 11110000
          -65 2 -21 37 35 63 10 37 71 vvcurveto
          108 -40 34 92 callsubr
          -15 -55 hvcurveto
          -54 -4 -48 -61 vvcurveto
          -76 24 -29 50 -12 vhcurveto
          -4 vlineto
          -50 -12 -24 -29 -76 -61 4 -48 -54 vvcurveto
          -55 -11 -15 -42 vhcurveto
          -19 hlineto
          endchar
        </CharString>
        <CharString name="bracketleft">
          108 callgsubr
          704 32 callgsubr
          hintmask 11100000
          87 -152 89 callsubr
          704 72 callsubr
        </CharString>
        <CharString name="bracketright">
          108 callgsubr
          704 81 callgsubr
          hintmask 11100000
          46 -152 rmoveto
          hintmask 11010000
          211 860 111 callgsubr
          -704 hlineto
          hintmask 11100000
          -102 hlineto
          endchar
        </CharString>
        <CharString name="c">
          -42 callgsubr
          endchar
        </CharString>
        <CharString name="colon">
          -278 -12 185 139 185 hstem
          61 178 vstem
          -1 callsubr
          -324 vmoveto
          -83 callgsubr
          endchar
        </CharString>
        <CharString name="comma">
          -278 6 167 hstem
          159 97 vstem
          76 46 callgsubr
          35 63 83 110 vvcurveto
          87 -36 52 -66 -51 -41 -33 -51 -53 42 -30 47 vhcurveto
          3 2 0 3 hhcurveto
          1 -50 -40 -46 -74 -26 rrcurveto
          endchar
        </CharString>
        <CharString name="comma.dnom">
          -370 1 58 callsubr
          -130 -41 callsubr
        </CharString>
        <CharString name="comma.numr">
          -370 263 58 callsubr
          132 -41 callsubr
        </CharString>
        <CharString name="d">
          -5 -12 46 callsubr
          39 151 171 147 hintmask 10111100
          -87 callsubr
          hintmask 01111100
          30 callsubr
          hintmask 10111100
          -53 callgsubr
          endchar
        </CharString>
        <CharString name="dollar">
          -50 -110 217 -96 -21 25 -21 534 217 -103 -20 22 -20 hstemhm
          63 141 11 97 15 141 hintmask 1000010100000000
          215 -110 rmoveto
          97 hlineto
          hintmask 0010010100000000
          104 vlineto
          hintmask 0011001110000000
          103 22 53 74 96 191 -264 -8 95 vvcurveto
          45 26 19 48 42 31 -17 -33 36 vhcurveto
          hintmask 0010010110000000
          74 84 rlineto
          hintmask 0010010100000000
          -39 41 -46 32 -64 9 rrcurveto
          hintmask 0011000100000000
          101 -97 vlineto
          hintmask 0010100100000000
          -103 vlineto
          hintmask 1000101110000000
          -94 -19 -58 -68 -98 -180 264 2 -103 vvcurveto
          -46 -25 -23 -56 -48 -44 20 38 -51 vhcurveto
          hintmask 0100010100000000
          -64 -99 47 -43 70 -26 59 -7 rlinecurve
          endchar
        </CharString>
        <CharString name="e">
          -87 callgsubr
          endchar
        </CharString>
        <CharString name="eight">
          -50 -12 102 455 102 hstemhm
          42 8 callgsubr
          263 -93 callsubr
        </CharString>
        <CharString name="eight.dnom">
          -202 -12 34 callgsubr
          -12 -69 callgsubr
        </CharString>
        <CharString name="eight.numr">
          -202 250 34 callgsubr
          250 -69 callgsubr
        </CharString>
        <CharString name="equal">
          -50 162 104 128 104 118 callgsubr
          34 394 rmoveto
          48 callsubr
          -336 vmoveto
          77 callgsubr
        </CharString>
        <CharString name="exclam">
          -238 80 callsubr
          hstemhm
          81 -13 callsubr
          hintmask 01001000
          122 231 56 callsubr
          hintmask 01010000
          -10 callgsubr
          hintmask 01100000
          69 -549 rmoveto
          51 38 40 52 hvcurveto
          hintmask 10100000
          53 99 callgsubr
          -53 vhcurveto
          hintmask 01100000
          -52 38 -40 51 vhcurveto
          endchar
        </CharString>
        <CharString name="f">
          41 callsubr
          hstemhm
          90 147 hintmask 10110100
          0 callsubr
          hintmask 10101100
          27 108 rlineto
          hintmask 11010100
          -40 callsubr
          -27 vlineto
          -66 -5 rlineto
          hintmask 10110100
          -109 66 vlineto
          endchar
        </CharString>
        <CharString name="f_f">
          79 21 -21 381 115 91 116 -106 116 -10 -20 30 -20 71 callgsubr
          hintmask 11010011
          406 hmoveto
          1 callgsubr
          vhcurveto
          hintmask 11100011
          51 callsubr
          hvcurveto
          hintmask 11000111
          27 108 rlineto
          hintmask 11010011
          63 callsubr
          hintmask 11100011
          23 vlineto
          47 25 21 34 27 15 -4 -7 16 vhcurveto
          hintmask 11001011
          27 109 rlineto
          hintmask 11100011
          9 -23 -38 9 -42 hhcurveto
          -135 -53 -83 -102 hvcurveto
          -23 82 callgsubr
          -381 147 381 169 vlineto
          endchar
        </CharString>
        <CharString name="f_f_t">
          426 85 callsubr
          91 42 callsubr
          88 callsubr
          hintmask 11101110
          406 hmoveto
          147 381 153 -201 hlineto
          -115 48 -77 123 44 callsubr
          vhcurveto
          26 callsubr
          119 115 -119 70 callsubr
          vlineto
          -17 -132 rlineto
          -161 122 callgsubr
          30 vlineto
          100 callgsubr
          51 callsubr
          vhcurveto
          27 108 rlineto
          63 callsubr
          hintmask 11101110
          -16 callgsubr
          endchar
        </CharString>
        <CharString name="f_t">
          110 -12 115 -82 -21 381 115 101 116 0 -20 hstemhm
          90 147 88 callsubr
          hintmask 01110110
          90 hmoveto
          147 381 153 -201 hlineto
          hintmask 10110110
          -115 48 -77 123 44 callsubr
          vhcurveto
          26 callsubr
          119 115 -119 70 callsubr
          vlineto
          -17 -132 rlineto
          -161 30 hlineto
          100 callgsubr
          51 callsubr
          vhcurveto
          hintmask 01101110
          27 108 rlineto
          hintmask 01110110
          -40 callsubr
          -27 82 callgsubr
          vlineto
          endchar
        </CharString>
        <CharString name="five">
          -23 callgsubr
        </CharString>
        <CharString name="five.dnom">
          -202 -12 -24 callsubr
          -12 -44 callsubr
          hintmask 11101000
          151 91 hlineto
          hintmask 11110100
          -79 callgsubr
          -51 35 55 -28 70 hhcurveto
          endchar
        </CharString>
        <CharString name="five.numr">
          -202 250 -24 callsubr
          250 -26 callgsubr
          6 54 rlineto
          hintmask 11101000
          151 91 hlineto
          hintmask 11110100
          -79 callgsubr
          -51 35 55 -28 70 hhcurveto
          endchar
        </CharString>
        <CharString name="four">
          -50 97 callsubr
          294 137 vstem
          160 10 callgsubr
        </CharString>
        <CharString name="four.dnom">
          -202 87 55 callsubr
          157 -58 callsubr
          endchar
        </CharString>
        <CharString name="four.numr">
          -202 349 55 callsubr
          419 -58 callsubr
          endchar
        </CharString>
        <CharString name="g">
          -80 callsubr
          endchar
        </CharString>
        <CharString name="grave">
          -23 94 callgsubr
          87 253 vstem
          268 572 -85 callsubr
        </CharString>
        <CharString name="greater">
          -50 104 456 102 callgsubr
          104 rmoveto
          hintmask 10100000
          460 177 rlineto
          102 vlineto
          -460 177 rlineto
          -121 vlineto
          176 -58 135 -47 rlineto
          -4 vlineto
          -135 -47 -176 -58 rlineto
          endchar
        </CharString>
        <CharString name="h">
          -3 callgsubr
        </CharString>
        <CharString name="hyphen">
          -246 201 104 hstem
          43 246 vstem
          43 201 rmoveto
          246 104 -246 hlineto
          endchar
        </CharString>
        <CharString name="i">
          -29 callgsubr
        </CharString>
        <CharString name="i.t">
          -29 callgsubr
        </CharString>
        <CharString name="j">
          -15 callgsubr
        </CharString>
        <CharString name="k">
          -30 67 callgsubr
          225 -20 hstem
          65 143 vstem
          -52 callsubr
          endchar
        </CharString>
        <CharString name="l">
          -31 callgsubr
          endchar
        </CharString>
        <CharString name="less">
          -50 104 456 96 callgsubr
          104 rmoveto
          121 vlineto
          -176 58 rlineto
          hintmask 11000000
          -135 47 rlineto
          4 vlineto
          135 47 176 58 rlineto
          121 vlineto
          -460 -177 rlineto
          -102 vlineto
          endchar
        </CharString>
        <CharString name="m">
          279 47 callsubr
          145 147 146 147 hintmask 10111100
          38 callsubr
          hintmask 11011100
          -63 callgsubr
          hintmask 10111100
          -10 64 113 callgsubr
          endchar
        </CharString>
        <CharString name="n">
          -6 47 callsubr
          88 callsubr
          hintmask 10111000
          38 callsubr
          hintmask 11011000
          -73 callgsubr
          hintmask 10111000
          45 callgsubr
          endchar
        </CharString>
        <CharString name="nine">
          -50 -50 callgsubr
          131 104 195 110 hstem
          34 84 callsubr
          168 -13 callgsubr
        </CharString>
        <CharString name="nine.dnom">
          119 callgsubr
          71 73 106 82 hstem
          35 96 110 99 vstem
          131 267 -91 callsubr
        </CharString>
        <CharString name="nine.numr">
          -202 250 82 71 73 106 82 hstem
          35 96 110 99 vstem
          131 529 -91 callsubr
        </CharString>
        <CharString name="numbersign">
          123 callgsubr
          187 94 110 94 hstem
          34 464 vstem
          86 hmoveto
          85 hlineto
          23 187 rlineto
          103 hlineto
          -22 -187 rlineto
          85 hlineto
          23 187 rlineto
          95 94 -84 hlineto
          13 110 rlineto
          91 94 -79 103 callgsubr
          -104 103 callgsubr
          -91 -94 79 hlineto
          -14 -110 rlineto
          -85 -94 74 hlineto
          97 94 rmoveto
          13 110 rlineto
          104 hlineto
          -14 -110 rlineto
          endchar
        </CharString>
        <CharString name="o">
          -81 callgsubr
          endchar
        </CharString>
        <CharString name="one">
          -50 0 119 367 27 callsubr
          516 89 callgsubr
          -367 -138 vlineto
          endchar
        </CharString>
        <CharString name="one.dnom">
          -202 281 18 callsubr
          hmoveto
          12 callsubr
          hintmask 10100000
          3 callgsubr
          hintmask 01100000
          -66 89 vlineto
          endchar
        </CharString>
        <CharString name="one.numr">
          -202 543 18 callsubr
          262 40 callsubr
        </CharString>
        <CharString name="p">
          -30 callgsubr
        </CharString>
        <CharString name="parenleft">
          -234 -179 914 hstem
          72 119 vstem
          204 -179 rmoveto
          92 38 rlineto
          -73 130 -32 147 142 vvcurveto
          142 32 147 73 130 vhcurveto
          -92 38 rlineto
          -84 -137 -48 -144 -176 vvcurveto
          -176 48 -144 84 -137 vhcurveto
          endchar
        </CharString>
        <CharString name="parenleft.dnom">
          -310 -90 57 callsubr
          -90 -24 callgsubr
        </CharString>
        <CharString name="parenleft.numr">
          -310 172 57 callsubr
          172 -24 callgsubr
        </CharString>
        <CharString name="parenright">
          -234 -179 914 117 callgsubr
          -179 rmoveto
          84 137 48 144 176 vvcurveto
          176 -48 144 -84 137 vhcurveto
          -92 -38 rlineto
          74 -130 32 -147 -142 vvcurveto
          -142 -32 -147 -74 -130 vhcurveto
          endchar
        </CharString>
        <CharString name="parenright.dnom">
          -310 -90 72 callgsubr
          -90 -18 callgsubr
        </CharString>
        <CharString name="parenright.numr">
          -310 172 72 callgsubr
          172 -18 callgsubr
        </CharString>
        <CharString name="percent">
          279 -12 82 180 58 callgsubr
          156 102 120 103 hintmask 11011111
          -17 callgsubr
          hintmask 10111111
          22 -344 -70 callsubr
          107 -676 -88 callgsubr
          endchar
        </CharString>
        <CharString name="period">
          -278 -12 79 callgsubr
          -12 -48 callgsubr
        </CharString>
        <CharString name="period.dnom">
          -370 -8 43 callsubr
          -8 10 callsubr
        </CharString>
        <CharString name="period.numr">
          -370 254 43 callsubr
          254 10 callsubr
        </CharString>
        <CharString name="plus">
          95 callsubr
          210 108 vstem
          210 94 rmoveto
          108 184 176 104 -176 184 -108 -184 -176 -104 176 hlineto
          endchar
        </CharString>
        <CharString name="q">
          -5 -163 -21 172 80 callgsubr
          39 151 171 147 hintmask 11011100
          361 109 callgsubr
          680 -115 hlineto
          hintmask 11101100
          -12 -49 rlineto
          -4 hlineto
          42 -39 -39 19 -54 68 callsubr
          -45 callsubr
          45 47 23 32 33 hvcurveto
          -6 -76 rlineto
          -81 141 rmoveto
          -57 -33 44 98 94 42 44 47 -19 callgsubr
          hvcurveto
          -203 vlineto
          -57 callsubr
          endchar
        </CharString>
        <CharString name="question">
          -115 80 callsubr
          575 112 callgsubr
          hintmask 01101000
          11 callgsubr
          hintmask 01110000
          64 -243 rmoveto
          51 38 40 52 hvcurveto
          hintmask 10110000
          53 -38 40 -51 -51 -37 -40 -53 vhcurveto
          hintmask 01110000
          -52 37 -40 51 vhcurveto
          endchar
        </CharString>
        <CharString name="quotedbl">
          -41 354 61 callsubr
          94 143 vstem
          110 354 rmoveto
          80 hlineto
          29 199 -10 callgsubr
          266 -199 64 callgsubr
        </CharString>
        <CharString name="quotesingle">
          -278 354 61 callsubr
          vstem
          110 354 64 callgsubr
        </CharString>
        <CharString name="r">
          -6 callgsubr
          endchar
        </CharString>
        <CharString name="s">
          -74 callsubr
          endchar
        </CharString>
        <CharString name="semicolon">
          -36 callsubr
        </CharString>
        <CharString name="seven">
          123 callgsubr
          511 124 hstem
          159 148 vstem
          159 hmoveto
          148 hlineto
          11 248 21 119 147 178 rrcurveto
          90 -442 -124 285 vlineto
          -120 -166 -38 93 callsubr
        </CharString>
        <CharString name="seven.dnom">
          -202 300 59 callgsubr
          hmoveto
          -34 callgsubr
          endchar
        </CharString>
        <CharString name="seven.numr">
          -202 562 59 callgsubr
          262 2 callgsubr
        </CharString>
        <CharString name="six">
          -50 43 callgsubr
          41 67 callsubr
          275 -89 callsubr
        </CharString>
        <CharString name="six.dnom">
          119 callgsubr
          106 73 71 82 hstem
          36 99 109 96 vstem
          193 176 -90 callgsubr
        </CharString>
        <CharString name="six.numr">
          -202 250 82 106 73 71 82 hstem
          36 99 109 96 vstem
          193 438 -90 callgsubr
        </CharString>
        <CharString name="slash">
          -239 -160 870 hstem
          13 297 vstem
          13 -160 rmoveto
          96 hlineto
          201 870 rlineto
          -96 hlineto
          endchar
        </CharString>
        <CharString name="slash.frac">
          -10 callsubr
        </CharString>
        <CharString name="space">
          -378 endchar
        </CharString>
        <CharString name="space.frac">
          -440 endchar
        </CharString>
        <CharString name="t">
          66 callsubr
          hstem
          85 147 vstem
          -80 callgsubr
          endchar
        </CharString>
        <CharString name="three">
          -51 callsubr
        </CharString>
        <CharString name="three.dnom">
          -202 -12 31 callsubr
          -12 -83 callsubr
        </CharString>
        <CharString name="three.numr">
          -202 250 31 callsubr
          250 -83 callsubr
        </CharString>
        <CharString name="two">
          -50 73 callsubr
          37 hmoveto
          447 124 -128 hlineto
          -30 -44 94 callsubr
          103 108 100 114 107 vvcurveto
          122 -85 80 -125 65 callsubr
          34 32 35 31 46 hhcurveto
          55 35 -34 -62 -90 -114 -109 -162 -153 hvcurveto
          endchar
        </CharString>
        <CharString name="two.dnom">
          -202 0 29 callgsubr
          hmoveto
          60 callgsubr
          hintmask 11010000
          -57 callgsubr
          hintmask 10100000
          61 callgsubr
          endchar
        </CharString>
        <CharString name="two.numr">
          -202 262 29 callgsubr
          262 rmoveto
          60 callgsubr
          hintmask 11010000
          -57 callgsubr
          hintmask 10100000
          61 callgsubr
          endchar
        </CharString>
        <CharString name="u">
          -70 callgsubr
          endchar
        </CharString>
        <CharString name="underscore">
          -78 -140 83 hstem
          12 476 vstem
          12 -140 96 callsubr
        </CharString>
        <CharString name="v">
          -55 0 109 387 -20 hstem
          12 499 vstem
          179 hmoveto
          170 hlineto
          162 496 70 callgsubr
          -65 -234 -13 -49 -13 -52 -12 -52 39 callgsubr
          52 -13 52 -13 49 -64 234 76 callgsubr
          endchar
        </CharString>
        <CharString name="w">
          65 callgsubr
          hstemhm
          24 728 hintmask 10110000
          21 callsubr
          hintmask 11010000
          -85 callgsubr
          endchar
        </CharString>
        <CharString name="x">
          -38 callsubr
        </CharString>
        <CharString name="y">
          27 callgsubr
          hstemhm
          12 497 hintmask 10110000
          -101 callgsubr
          hintmask 01110000
          -26 -112 rlineto
          hintmask 10110000
          26 callgsubr
          endchar
        </CharString>
        <CharString name="z">
          22 callgsubr
          endchar
        </CharString>
        <CharString name="zero">
          -50 -12 114 431 114 hstem
          37 105 callgsubr
          16 callsubr
          114 vmoveto
          -49 -39 45 173 174 39 39 49 50 38 -39 -174 -173 -38 -45 -50 hvcurveto
          endchar
        </CharString>
        <CharString name="zero.dnom">
          -202 -12 54 callgsubr
          -12 -88 callgsubr
          endchar
        </CharString>
        <CharString name="zero.numr">
          -202 250 82 250 82 hstem
          26 102 120 103 vstem
          -17 callgsubr
          endchar
        </CharString>
      <CharString index="0">
        rmoveto
        176 120 128 213 38 callgsubr
        -213 120 -128 176 hvcurveto
        -100 callgsubr
        return
      </CharString>
      <CharString index="1">
        287 -12 rmoveto
        59 66 21 35 51 hvcurveto
        -49 89 rlineto
        -22 -36 -34 -11 -37 hhcurveto
        -66 -50 33 72 -13 hvcurveto
        297 hlineto
        3 12 3 27 26 vvcurveto
        135 -70 103 -141 -119 -115 -99 -161 -164 109 -96 142 vhcurveto
        -110 314 rmoveto
        63 10 40 31 46 hhcurveto
        59 24 -39 -55 hvcurveto
        return
      </CharString>
      <CharString index="2">
        330 -105 callsubr
        return
      </CharString>
      <CharString index="3">
        60 callsubr
        40 155 rlineto
        199 hlineto
        40 -155 rlineto
        156 hlineto
        -204 -64 callgsubr
        return
      </CharString>
      <CharString index="4">
        278 -12 rmoveto
        125 116 95 165 165 -116 95 -125 -126 -116 -95 -165 -165 116 14 callgsubr
        -30 55 86 86 30 55 61 60 31 -55 -86 -86 -31 -55 -60 hvcurveto
        return
      </CharString>
      <CharString index="5">
        -102 callsubr
        -12 callsubr
        -104 vvcurveto
        return
      </CharString>
      <CharString index="6">
        120 46 callgsubr
        53 64 125 47 hvcurveto
        172 501 70 callgsubr
        -60 -213 -12 -47 -11 -47 -11 -47 39 callgsubr
        49 -12 47 -14 45 -71 213 76 callgsubr
        191 -483 -7 -26 rlineto
        -39 -13 -25 -26 -49 hhcurveto
        -11 -13 4 2 -9 hvcurveto
        return
      </CharString>
      <CharString index="7">
        127 vmoveto
        -89 -56 83 87 callgsubr
        56 78 89 89 56 -78 -130 -131 -56 -83 -89 hvcurveto
        return
      </CharString>
      <CharString index="8">
        197 420 rlineto
        -154 hlineto
        -59 -150 -18 -49 -18 -45 -19 -50 rlinecurve
        -4 hlineto
        -18 50 -17 45 -18 49 -58 150 49 callgsubr
        197 -420 rlineto
        return
      </CharString>
      <CharString index="9">
        334 -12 rmoveto
        168 89 95 219 hvcurveto
        97 callgsubr
        -73 -40 44 128 vhcurveto
        365 -148 -350 vlineto
        -219 92 -95 169 vhcurveto
        return
      </CharString>
      <CharString index="10">
        -84 57 -66 91 vhcurveto
        50 114 -97 callsubr
        return
      </CharString>
      <CharString index="11">
        90 callsubr
        156 90 94 108 92 -50 53 -79 32 hvcurveto
        -84 34 rlineto
        -56 23 -43 14 40 vvcurveto
        37 32 22 51 52 40 -19 -33 43 vhcurveto
        75 93 rlineto
        56 -56 -79 30 -75 hhcurveto
        -136 -96 -86 -108 -95 64 -56 67 -27 hvcurveto
        85 -36 rlineto
        57 -24 37 -13 -41 vvcurveto
        -39 -30 -24 -61 -54 -60 28 40 -47 vhcurveto
        -84 -101 rlineto
        -62 66 90 -32 85 hhcurveto
        return
      </CharString>
      <CharString index="12">
        365 -12 rmoveto
        91 79 35 44 45 hvcurveto
        300 -238 -120 108 -112 vlineto
        -13 -16 -27 -7 -27 hhcurveto
        -122 -61 78 134 131 71 79 101 56 34 -23 -29 33 hvcurveto
        77 94 rlineto
        44 -43 -68 41 -94 hhcurveto
        -174 -144 37 callgsubr
        140 -115 179 hvcurveto
        return
      </CharString>
      <CharString index="13">
        211 -12 rmoveto
        133 71 70 90 91 -71 35 -63 23 hvcurveto
        -51 19 -44 12 32 vvcurveto
        25 19 14 38 34 35 -16 -26 35 vhcurveto
        66 88 rlineto
        32 -42 -57 31 -76 hhcurveto
        -114 -76 -63 -92 -82 69 -41 60 -23 hvcurveto
        51 -20 50 -15 -33 vvcurveto
        -26 -19 -16 -44 -42 -41 18 34 -45 vhcurveto
        -66 -92 rlineto
        -41 50 75 -28 65 hhcurveto
        return
      </CharString>
      <CharString index="14">
        -7 callsubr
        -99 callgsubr
        return
      </CharString>
      <CharString index="15">
        8 callsubr
        hstem
        46 151 290 -101 callsubr
        return
      </CharString>
      <CharString index="16">
        83 callsubr
        -289 147 308 75 callsubr
        return
      </CharString>
      <CharString index="17">
        rmoveto
        33 18 -19 -34 -37 -22 -16 -25 -28 -27 22 56 -7 hvcurveto
        19 19 20 9 19 hhcurveto
        9 -188 rmoveto
        78 60 59 79 75 -47 48 -75 -31 -29 -12 -22 -23 hvcurveto
        65 7 26 40 57 hhcurveto
        27 20 -12 -14 19 hvcurveto
        42 67 rlineto
        20 -23 -36 21 -56 hhcurveto
        -116 -66 -85 -124 -124 60 -81 106 hvcurveto
        endchar
      </CharString>
      <CharString index="18">
        vstem
        135 hmoveto
        182 hlineto
        61 296 11 50 8 53 8 48 rlinecurve
        4 hlineto
        7 -48 8 -53 11 -50 64 -296 rcurveline
        185 hlineto
        116 652 70 callgsubr
        -45 -305 -9 -67 -9 -69 -9 -70 39 callgsubr
        70 -13 70 -13 66 -70 305 rcurveline
        -125 hlineto
        -70 -305 -13 -68 -13 -69 -13 -69 rlinecurve
        -4 hlineto
        -8 69 -10 69 -8 68 -45 305 rcurveline
        -151 hlineto
        return
      </CharString>
      <CharString index="19">
        rmoveto
        94 69 77 87 callgsubr
        -69 76 -94 -94 -68 -76 -130 -131 68 -77 94 hvcurveto
        82 vmoveto
        -33 -27 33 93 93 27 31 33 33 27 -31 -93 -93 -27 -33 -33 hvcurveto
        return
      </CharString>
      <CharString index="20">
        -60 -68 callgsubr
        -92 callsubr
        return
      </CharString>
      <CharString index="21">
        64 -12 95 -7 63 vhcurveto
        4 hlineto
        52 -155 93 -249 rlineto
        81 hlineto
        93 249 53 155 101 callgsubr
        -63 -12 -95 -64 vvcurveto
        -239 134 652 -160 vlineto
        -103 -290 -13 -38 -11 -42 -13 -40 39 callgsubr
        40 -12 42 -13 38 -105 290 rcurveline
        -161 hlineto
        return
      </CharString>
      <CharString index="22">
        9 46 7 46 9 53 rrcurveto
        4 hlineto
        9 -53 8 -46 10 -46 45 -198 rcurveline
        172 hlineto
        119 496 rlineto
        -136 hlineto
        -47 -230 -9 -49 -5 -48 -9 -50 rlinecurve
        -4 hlineto
        -10 50 -9 48 -12 49 -56 230 rcurveline
        -127 hlineto
        -55 -230 -12 -47 -8 -50 -9 -50 rlinecurve
        -4 hlineto
        -8 50 -6 48 -8 49 -48 230 rcurveline
        -146 hlineto
        return
      </CharString>
      <CharString index="23">
        vstem
        349 -12 rmoveto
        85 72 33 63 54 hvcurveto
        -78 92 rlineto
        -34 -32 -42 -27 -53 hhcurveto
        -96 -62 78 134 131 71 79 89 47 35 -22 -30 33 hvcurveto
        78 94 rlineto
        45 -44 -68 40 -84 hhcurveto
        -165 -143 37 callgsubr
        138 -115 165 hvcurveto
        return
      </CharString>
      <CharString index="24">
        -60 callsubr
        -38 -40 -53 -52 38 -40 51 hvcurveto
        return
      </CharString>
      <CharString index="25">
        36 21 21 28 41 vvcurveto
        68 -64 41 -72 -61 -40 -21 -46 -43 vhcurveto
        61 -54 rlineto
        22 18 21 17 25 hhcurveto
        30 19 -16 -26 -33 -31 -15 -48 hvcurveto
        return
      </CharString>
      <CharString index="26">
        -23 -12 119 282 119 -76 callgsubr
        return
      </CharString>
      <CharString index="27">
        50 callgsubr
        199 119 115 -119 70 callsubr
        vlineto
        -17 -132 -76 78 callsubr
        68 -201 vlineto
        30 callgsubr
        return
      </CharString>
      <CharString index="28">
        -236 hlineto
        -17 -194 46 -32 rlineto
        16 19 16 7 23 hhcurveto
        32 27 -20 -38 -32 -24 -27 -33 -34 -24 15 33 -25 hvcurveto
        -65 -51 rlineto
        return
      </CharString>
      <CharString index="29">
        -80 hlineto
        -55 -20 12 25 17 5 9 13 11 hvcurveto
        -7 22 20 -3 18 hhcurveto
        109 86 53 114 26 -7 24 -9 15 hvcurveto
        79 107 -181 hlineto
        return
      </CharString>
      <CharString index="30">
        vlineto
        -91 callgsubr
        -50 -35 -40 -42 vhcurveto
        -4 hlineto
        return
      </CharString>
      <CharString index="31">
        hstem
        31 callgsubr
        vstem
        -103 callgsubr
        return
      </CharString>
      <CharString index="32">
        -176 -120 -122 -213 return
      </CharString>
      <CharString index="33">
        -76 callsubr
        148 return
      </CharString>
      <CharString index="34">
        335 -77 callgsubr
        return
      </CharString>
      <CharString index="35">
        0 -90 callsubr
        return
      </CharString>
      <CharString index="36">
        -58 96 rlineto
        -20 -26 -31 -16 -32 hhcurveto
        -64 -47 55 86 86 45 55 71 23 20 -9 -20 24 hvcurveto
        69 95 -8 callgsubr
        return
      </CharString>
      <CharString index="37">
        -49 callsubr
        78 callgsubr
        150 147 25 callgsubr
        62 callsubr
        hlineto
        hintmask 10111000
        -328 vlineto
        -98 callsubr
        return
      </CharString>
      <CharString index="38">
        -29 callsubr
        hintmask 11011000
        -61 callsubr
        hintmask 11100100
        -11 callsubr
        hintmask 11011000
        -49 callgsubr
        hintmask 11100100
        -58 callgsubr
      </CharString>
      <CharString index="39">
        -12 -71 callsubr
        return
      </CharString>
      <CharString index="40">
        27 0 114 168 109 147 114 -39 callgsubr
        172 144 -112 144 hintmask 11110100
        5 callgsubr
        hintmask 11111000
        53 20 32 63 58 vvcurveto
        125 -105 37 -135 vhcurveto
        -223 hlineto
        147 -261 rmoveto
        147 70 vlineto
        69 33 -19 -51 -47 -31 -30 -72 hvcurveto
        -69 -277 rmoveto
        168 83 vlineto
        hintmask 11110100
        81 40 -23 -57 -60 -41 -28 -80 hvcurveto
        endchar
      </CharString>
      <CharString index="41">
        -77 callsubr
        hstem
        77 147 vstem
        77 -25 callsubr
        return
      </CharString>
      <CharString index="42">
        77 147 return
      </CharString>
      <CharString index="43">
        652 rlineto
        -177 hlineto
        return
      </CharString>
      <CharString index="44">
        335 vlineto
        32 31 29 16 24 36 callgsubr
        -289 147 335 vlineto
        32 32 28 16 25 36 callgsubr
        -289 147 308 vlineto
        124 -48 76 -107 -66 -46 -38 -45 -44 vhcurveto
        53 -25 -42 30 -70 hhcurveto
        -65 -44 -35 -41 -41 hvcurveto
        -4 hlineto
        return
      </CharString>
      <CharString index="45">
        -67 callsubr
        553 -147 -547 vlineto
        return
      </CharString>
      <CharString index="46">
        -12 rmoveto
        -43 callgsubr
        return
      </CharString>
      <CharString index="47">
        -50 callgsubr
        282 119 return
      </CharString>
      <CharString index="48">
        13 callsubr
        hstem
        5 callsubr
        vstem
        -98 callgsubr
        return
      </CharString>
      <CharString index="49">
        -16 -178 rmoveto
        -30 -22 22 28 21 12 21 22 15 hvcurveto
        39 -19 31 -9 -31 vvcurveto
        -26 -23 -22 -29 vhcurveto
        endchar
      </CharString>
      <CharString index="50">
        55 61 49 56 63 vvcurveto
        84 -58 48 -86 -60 -49 -27 -53 -40 vhcurveto
        61 -56 rlineto
        29 22 23 18 26 hhcurveto
        36 21 -23 -38 hvcurveto
        return
      </CharString>
      <CharString index="51">
        -11 79 callsubr
        11 545 vstem
        11 hmoveto
        158 hlineto
        61 133 14 34 15 33 15 40 rlinecurve
        4 hlineto
        18 -40 15 -33 16 -34 65 -133 rcurveline
        164 hlineto
        -180 328 169 324 rlineto
        -157 hlineto
        -52 -123 -13 -30 -14 -34 -15 -41 rlinecurve
        -4 hlineto
        -18 41 -14 34 -15 30 -57 123 rcurveline
        -164 hlineto
        170 -317 rlineto
        endchar
      </CharString>
      <CharString index="52">
        hstem
        48 138 92 137 vstem
        -94 callgsubr
        return
      </CharString>
      <CharString index="53">
        77 -12 87 -6 72 vhcurveto
        4 hlineto
        64 -142 170 -325 rlineto
        151 652 -140 -230 hlineto
        return
      </CharString>
      <CharString index="54">
        -45 callsubr
        vhcurveto
        38 120 rmoveto
        -57 -33 44 98 94 42 44 47 -19 callgsubr
        hvcurveto
        -203 vlineto
        -57 callsubr
        return
      </CharString>
      <CharString index="55">
        -77 12 -92 6 -69 vhcurveto
        -4 hlineto
        -64 144 -170 324 rlineto
        -151 return
      </CharString>
      <CharString index="56">
        123 -2 callsubr
        return
      </CharString>
      <CharString index="57">
        -12 119 return
      </CharString>
      <CharString index="58">
        16 250 rmoveto
        -32 13 -25 13 28 vvcurveto
        21 18 15 22 24 18 -15 -25 -16 -8 -18 -17 -16 vhcurveto
        return
      </CharString>
      <CharString index="59">
        rmoveto
        -83 callgsubr
        endchar
      </CharString>
      <CharString index="60">
        11 457 rmoveto
        -39 -29 28 55 53 29 27 39 39 29 -28 -52 -55 -29 -28 -39 hvcurveto
        return
      </CharString>
      <CharString index="61">
        36 hmoveto
        472 124 -291 hlineto
        288 439 rlineto
        89 -442 -124 261 vlineto
        -288 -439 rlineto
        return
      </CharString>
      <CharString index="62">
        -40 callgsubr
        -12 -20 return
      </CharString>
      <CharString index="63">
        91 callgsubr
        -37 callgsubr
        return
      </CharString>
      <CharString index="64">
        68 46 31 50 42 hvcurveto
        3 hlineto
        return
      </CharString>
      <CharString index="65">
        -111 42 callgsubr
        vstem
        -82 callsubr
        return
      </CharString>
      <CharString index="66">
        8 -22 -27 4 -28 hhcurveto
        -107 -98 -60 -119 -58 32 -47 35 -24 hvcurveto
        -4 vlineto
        return
      </CharString>
      <CharString index="67">
        2 callsubr
        120 return
      </CharString>
      <CharString index="68">
        hstemhm
        -65 callgsubr
        return
      </CharString>
      <CharString index="69">
        -21 383 125 return
      </CharString>
      <CharString index="70">
        hstem
        46 151 -84 callgsubr
        return
      </CharString>
      <CharString index="71">
        vlineto
        -55 -13 -25 -39 -14 68 callgsubr
        -26 115 callgsubr
        20 69 callsubr
        return
      </CharString>
      <CharString index="72">
        18 21 -21 221 117 197 117 9 callgsubr
        192 144 vstem
        -14 callgsubr
        endchar
      </CharString>
      <CharString index="73">
        114 hlineto
        7 132 17 87 89 113 rrcurveto
        58 -294 -90 174 vlineto
        -68 -103 -32 -76 -7 -121 rrcurveto
        return
      </CharString>
      <CharString index="74">
        204 hmoveto
        148 528 179 124 -506 95 callgsubr
        hlineto
        return
      </CharString>
      <CharString index="75">
        114 -81 12 callgsubr
        return
      </CharString>
      <CharString index="76">
        -292 -50 callgsubr
        -98 -21 713 -20 53 callsubr
        hintmask 01110000
        35 callgsubr
        hintmask 10110000
        -62 callgsubr
        hintmask 01110000
        28 callsubr
        return
      </CharString>
      <CharString index="77">
        -5 -163 -21 172 80 callgsubr
        65 147 171 151 hintmask 11011100
        65 109 callgsubr
        145 hlineto
        -5 79 rlineto
        -33 35 40 -19 43 hhcurveto
        107 102 98 170 hvcurveto
        hintmask 11101100
        153 -74 99 -120 -52 -50 -26 -35 -39 vhcurveto
        -4 hlineto
        hintmask 11011100
        -10 49 113 callgsubr
        226 -388 14 callsubr
        hintmask 11101100
        55 callgsubr
        hvcurveto
        hintmask 11011100
        -102 -41 -44 -51 vhcurveto
        endchar
      </CharString>
      <CharString index="78">
        -302 21 41 callgsubr
        54 callsubr
        hintmask 11110000
        45 callsubr
      </CharString>
      <CharString index="79">
        125 -125 147 return
      </CharString>
      <CharString index="80">
        15 callgsubr
        493 -147 -497 -36 callgsubr
        return
      </CharString>
      <CharString index="81">
        92 callgsubr
        79 -58 48 -69 -11 -18 -2 -4 -17 hvcurveto
        return
      </CharString>
      <CharString index="82">
        184 -163 -21 467 69 callgsubr
        return
      </CharString>
      <CharString index="83">
        rmoveto
        79 32 rlineto
        -45 82 -23 82 90 vvcurveto
        89 23 83 45 81 vhcurveto
        -79 32 rlineto
        -58 -88 -33 -78 -119 vvcurveto
        -120 33 -78 58 -88 vhcurveto
        endchar
      </CharString>
      <CharString index="84">
        -50 -50 callgsubr
        197 103 104 124 75 callgsubr
        -12 rmoveto
        124 109 81 141 135 -93 62 -109 -26 -21 -4 -11 -24 hvcurveto
        11 119 rlineto
        233 124 -360 hlineto
        -18 -321 66 -42 rlineto
        24 38 19 8 37 hhcurveto
        59 41 -34 -64 -65 -42 -34 -65 -54 -45 28 35 -38 hvcurveto
        -66 -93 rlineto
        -50 50 70 -39 104 hhcurveto
        endchar
      </CharString>
      <CharString index="85">
        -65 callsubr
        -51 34 57 -28 68 hhcurveto
        endchar
      </CharString>
      <CharString index="86">
        -277 21 -21 652 -20 -9 callgsubr
        return
      </CharString>
      <CharString index="87">
        -44 -211 92 100 112 64 89 143 107 -87 99 return
      </CharString>
      <CharString index="88">
        27 29 -8 -24 26 return
      </CharString>
      <CharString index="89">
        rmoveto
        57 88 33 78 120 vvcurveto
        119 -33 78 -57 88 vhcurveto
        -80 -32 rlineto
        45 -81 23 -83 -89 vvcurveto
        -90 -23 -82 -45 -82 vhcurveto
        endchar
      </CharString>
      <CharString index="90">
        188 250 -88 callgsubr
        return
      </CharString>
      <CharString index="91">
        23 vlineto
        47 25 21 34 27 15 -4 -7 16 vhcurveto
        27 109 rlineto
        9 -23 -38 9 -42 hhcurveto
        -135 -53 -83 -102 hvcurveto
        -23 82 callgsubr
        -381 147 381 169 vlineto
        return
      </CharString>
      <CharString index="92">
        -300 52 callsubr
        577 -20 93 154 hstemhm
        57 84 callgsubr
        hintmask 11101000
        -30 callsubr
        hintmask 11110000
        104 765 rmoveto
        -106 callsubr
      </CharString>
      <CharString index="93">
        77 -12 callgsubr
        return
      </CharString>
      <CharString index="94">
        434 rmoveto
        72 37 31 43 45 41 -32 -100 13 vhcurveto
        -45 -25 -37 -18 -33 hhcurveto
        -48 -36 25 67 hvcurveto
        61 -446 rmoveto
        133 124 107 237 223 -118 92 -123 -115 -96 -81 -132 -134 81 -62 108 39 55 25 42 33 hvcurveto
        -148 -5 -55 -50 -71 hhcurveto
        -37 -40 21 24 -21 hvcurveto
        -78 -88 rlineto
        -40 40 62 -36 84 hhcurveto
        endchar
      </CharString>
      <CharString index="95">
        hmoveto
        147 221 81 hlineto
        138 117 68 153 158 -116 52 -143 hvcurveto
        -224 hlineto
        147 -314 rmoveto
        197 68 vlineto
        80 44 -25 -68 -68 -39 -36 -81 hvcurveto
        return
      </CharString>
      <CharString index="96">
        147 235 81 hlineto
        125 -235 114 callgsubr
        -148 261 rlineto
        return
      </CharString>
      <CharString index="97">
        5 133 37 callsubr
        -133 rlineto
        return
      </CharString>
      <CharString index="98">
        -69 callsubr
        9 callsubr
        hlineto
        return
      </CharString>
      <CharString index="99">
        rlineto
        31 -37 -47 22 -61 hhcurveto
        -137 -121 -95 -165 return
      </CharString>
      <CharString index="100">
        125 -92 20 callgsubr
        return
      </CharString>
      <CharString index="101">
        -180 21 -21 379 16 callgsubr
        hintmask 10010100
        38 callsubr
        hintmask 11000100
        -5 callgsubr
        hintmask 10010100
        87 callsubr
        hintmask 11001000
        11 callsubr
        hintmask 10101000
        -10 87 rlineto
        hintmask 10100100
        -120 hlineto
        return
      </CharString>
      <CharString index="102">
        288 -28 callsubr
        return
      </CharString>
      <CharString index="103">
        hstemhm
        65 -28 callgsubr
        return
      </CharString>
      <CharString index="104">
        -7 21 -38 callgsubr
        193 -20 hstem
        65 147 88 callsubr
        vstem
        39 callsubr
        335 hlineto
        -91 callgsubr
        -49 -35 -33 -37 vhcurveto
        7 89 rlineto
        172 -147 vlineto
        endchar
      </CharString>
      <CharString index="105">
        36 27 27 37 36 -27 29 -36 -36 -27 -29 -36 -37 27 -27 36 hvcurveto
        endchar
      </CharString>
      <CharString index="106">
        rmoveto
        49 34 30 47 46 -34 31 -49 -49 -34 -31 -46 -47 34 -30 49 hvcurveto
        return
      </CharString>
      <CharString index="107">
        hmoveto
        147 272 return
      </CharString>
      <CharString index="108">
        147 381 89 115 -89 30 hlineto
        100 callgsubr
        return
      </CharString>
      <CharString index="109">
        rmoveto
        -34 callgsubr
        endchar
      </CharString>
      <CharString index="110">
        -33 -23 -25 -12 -54 -8 rrcurveto
        return
      </CharString>
      <CharString index="111">
        -21 272 129 return
      </CharString>
      <CharString index="112">
        77 hmoveto
        242 hlineto
        141 112 59 133 87 -51 49 -66 17 hvcurveto
        4 vlineto
        return
      </CharString>
      <CharString index="113">
        vstem
        -46 callsubr
        return
      </CharString>
      <CharString index="114">
        -69 -5 callsubr
        -4 callsubr
        endchar
      </CharString>
      <CharString index="115">
        126 -103 129 148 119 -110 137 hintmask 11100100
        return
      </CharString>
      <CharString index="116">
        hstem
        -65 callgsubr
        return
      </CharString>
      <CharString index="117">
        264 rmoveto
        84 138 18 36 18 36 16 35 rlinecurve
        4 hlineto
        -2 -40 -4 -61 -41 vvcurveto
        -103 vlineto
        -264 vmoveto
        137 152 73 112 -73 371 -180 hlineto
        -232 -382 rlineto
        -101 275 vlineto
        endchar
      </CharString>
      <CharString index="118">
        154 231 -55 callsubr
        return
      </CharString>
      <CharString index="119">
        -21 391 117 return
      </CharString>
      <CharString index="120">
        0 -25 callgsubr
        return
      </CharString>
      <CharString index="121">
        -95 126 hvcurveto
        119 vmoveto
        -61 return
      </CharString>
      <CharString index="122">
        rmoveto
        135 42 86 callgsubr
        return
      </CharString>
      <CharString index="123">
        51 callgsubr
        -4 callgsubr
        return
      </CharString>
      <CharString index="124">
        6 -76 -9 callsubr
        return
      </CharString>
      <CharString index="125">
        -115 185 vlineto
        -208 -302 rlineto
        return
      </CharString>
      <CharString index="126">
        rmoveto
        12 callsubr
        return
      </CharString>
      <CharString index="127">
        -21 496 -20 return
      </CharString>
      <CharString index="128">
        97 94 112 return
      </CharString>
      <CharString index="129">
        -118 57 callgsubr
        hstem
        38 398 6 callgsubr
        return
      </CharString>
      <CharString index="130">
        hmoveto
        192 hlineto
        191 128 105 224 224 -128 99 -199 hvcurveto
        -184 hlineto
        return
      </CharString>
      <CharString index="131">
        127 537 -20 return
      </CharString>
      <CharString index="132">
        hintmask 10111000
        -81 callsubr
        hintmask 01111000
        11 -69 rlineto
        120 return
      </CharString>
      <CharString index="133">
        -6 20 20 -4 30 hhcurveto
        return
      </CharString>
      <CharString index="134">
        -57 -194 44 callgsubr
        return
      </CharString>
      <CharString index="135">
        -55 -34 76 -83 hhcurveto
        -50 -51 -28 -75 -49 hvcurveto
        76 -59 rlineto
        37 21 24 21 27 hhcurveto
        return
      </CharString>
      <CharString index="136">
        90 223 89 hstemhm
        45 289 -118 104 hintmask 10100000
        45 return
      </CharString>
      <CharString index="137">
        -115 48 -77 123 vhcurveto
        return
      </CharString>
      <CharString index="138">
        36 151 182 150 return
      </CharString>
      <CharString index="139">
        78 hstemhm
        87 91 callsubr
        211 return
      </CharString>
      <CharString index="140">
        31 32 23 17 37 15 callsubr
        return
      </CharString>
      <CharString index="141">
        72 268 74 hstemhm
        38 23 callsubr
        hintmask 11100100
        188 return
      </CharString>
      <CharString index="142">
        200 -8 callsubr
        return
      </CharString>
      <CharString index="143">
        15 callsubr
        -72 hvcurveto
        return
      </CharString>
      <CharString index="144">
        -126 -216 -219 return
      </CharString>
      <CharString index="145">
        212 -120 123 -176 -75 callgsubr
        return
      </CharString>
      <CharString index="146">
        rlinecurve
        -4 hlineto
        -13 return
      </CharString>
      <CharString index="147">
        35 hvcurveto
        4 hlineto
        return
      </CharString>
      <CharString index="148">
        20 callgsubr
        93 6 callsubr
        return
      </CharString>
      <CharString index="149">
        -60 callgsubr
        hstem
        36 151 return
      </CharString>
      <CharString index="150">
        -12 110 195 104 131 119 hstem
        return
      </CharString>
      <CharString index="151">
        116 -85 -21 680 -20 return
      </CharString>
      <CharString index="152">
        48 callgsubr
        hlineto
        return
      </CharString>
      <CharString index="153">
        -194 rmoveto
        117 return
      </CharString>
      <CharString index="154">
        rlineto
        -150 hlineto
        return
      </CharString>
      <CharString index="155">
        -10 63 rlineto
        -120 return
      </CharString>
      <CharString index="156">
        rcurveline
        -158 hlineto
        return
      </CharString>
      <CharString index="157">
        256 -12 3 callsubr
        return
      </CharString>
      <CharString index="158">
        110 callgsubr
        22 -20 return
      </CharString>
      <CharString index="159">
        8 -22 -36 10 -41 hhcurveto
        return
      </CharString>
      <CharString index="160">
        hstemhm
        42 141 return
      </CharString>
      <CharString index="161">
        82 250 82 hstem
        26 102 120 103 vstem
        188 return
      </CharString>
      <CharString index="162">
        203 vlineto
        31 29 26 14 30 hhcurveto
        59 27 -45 -89 return
      </CharString>
      <CharString index="163">
        53 callgsubr
        138 147 return
      </CharString>
      <CharString index="164">
        0 49 callsubr
        return
      </CharString>
      <CharString index="165">
        82 -12 82 180 82 hstemhm
        26 102 120 103 return
      </CharString>
      <CharString index="166">
        90 hstem
        117 114 vstem
        117 return
      </CharString>
      <CharString index="167">
        289 90 -118 hlineto
        return
      </CharString>
      <CharString index="168">
        -49 -71 -63 -100 -82 vhcurveto
        return
      </CharString>
      <CharString index="169">
        rlineto
        -148 hlineto
        return
      </CharString>
      <CharString index="170">
        73 -1 callgsubr
        return
      </CharString>
      <CharString index="171">
        rmoveto
        80 hlineto
        29 199 -10 callgsubr
        endchar
      </CharString>
      <CharString index="172">
        198 0 119 224 153 0 -20 return
      </CharString>
      <CharString index="173">
        vlineto
        124 -46 76 -108 return
      </CharString>
      <CharString index="174">
        21 20 callgsubr
        return
      </CharString>
      <CharString index="175">
        -12 3 4 -13 vhcurveto
        return
      </CharString>
      <CharString index="176">
        185 0 -20 return
      </CharString>
      <CharString index="177">
        rlineto
        -141 hlineto
        return
      </CharString>
      <CharString index="178">
        hstemhm
        90 85 callgsubr
        return
      </CharString>
      <CharString index="179">
        571 hstem
        103 102 vstem
        115 return
      </CharString>
      <CharString index="180">
        115 278 115 return
      </CharString>
      <CharString index="181">
        119 -119 return
      </CharString>
      <CharString index="182">
        hstem
        82 130.5 120.5 147 vstem
        247 return
      </CharString>
      <CharString index="183">
        rcurveline
        -148 hlineto
        return
      </CharString>
      <CharString index="184">
        48 callsubr
        endchar
      </CharString>
      <CharString index="185">
        hstemhm
        60 147 return
      </CharString>
      <CharString index="186">
        185 hstem
        61 178 vstem
        150 return
      </CharString>
      <CharString index="187">
        -45 callgsubr
        hstemhm
        return
      </CharString>
      <CharString index="188">
        78 hstemhm
        46 211 -109 109 return
      </CharString>
      <CharString index="189">
        vlineto
        -66 -5 rlineto
        -109 66 return
      </CharString>
      <CharString index="190">
        120 701 -147 return
      </CharString>
      <CharString index="191">
        166 -157 147 return
      </CharString>
      <CharString index="192">
        147 169 147 return
      </CharString>
      <CharString index="193">
        91 108 hvcurveto
        return
      </CharString>
      <CharString index="194">
        131 130 return
      </CharString>
      <CharString index="195">
        140 231 return
      </CharString>
      <CharString index="196">
        -108 hlineto
        -45 -27 -44 -18 -69 -13 rrcurveto
        -91 119 return
      </CharString>
      <CharString index="197">
        87 13 callgsubr
        return
      </CharString>
      <CharString index="198">
        4 -39 callsubr
        return
      </CharString>
      <CharString index="199">
        rmoveto
        88 63 58 78 return
      </CharString>
      <CharString index="200">
        88 callgsubr
        hlineto
        return
      </CharString>
      <CharString index="201">
        572 254 hstem
        return
      </CharString>
      <CharString index="202">
        -124 179 return
      </CharString>
      <CharString index="203">
        hstemhm
        34 149 -149 460 hintmask 10100000
        494 return
      </CharString>
      <CharString index="204">
        350 -142 -365 vlineto
        -128 -42 -44 -73 return
      </CharString>
      <CharString index="205">
        127 hstem
        46 151 return
      </CharString>
      <CharString index="206">
        -38 40 -51 -51 -38 -40 return
      </CharString>
      <CharString index="207">
        51 21 20 36 return
      </CharString>
      <CharString index="208">
        -62 callsubr
        -7 return
      </CharString>
      <CharString index="209">
        hstemhm
        34 460 -149 149 hintmask 11000000
        34 return
      </CharString>
      <CharString index="210">
        hlineto
        20 165 rlineto
        -84 hlineto
        -21 -165 rlineto
        return
      </CharString>
      <CharString index="211">
        77 hmoveto
        93 callgsubr
        return
      </CharString>
      <CharString index="212">
        139 176 139 vstem
        return
      </CharString>
      <CharString index="213">
        -250 1000 hstem
        86 96 return
      </CharString>
      <CharString index="214">
        hvcurveto
        4 vlineto
        hintmask 11011000
        return
      </CharString>
      <CharString index="215">
        -234 -152 78 return
      </CharString>
      <CharString index="216">
        -184 rmoveto
        147 return
      </CharString>
      <CharString index="217">
        129 -12 -20 return
      </CharString>
      <CharString index="218">
        hlineto
        hintmask 11100000
        -211 -78 hlineto
        hintmask 11010000
        102 return
      </CharString>
      <CharString index="219">
        119 hstemhm
        130 177 -27 141 return
      </CharString>
      <CharString index="220">
        rlineto
        -120 hlineto
        return
      </CharString>
      <CharString index="221">
        rlineto
        165 hlineto
        return
      </CharString>
      <CharString index="222">
        -108 rlineto
        -8 return
      </CharString>
      <CharString index="223">
        41 vhcurveto
        19 78 -63 hlineto
        -88 -40 return
      </CharString>
      <CharString index="224">
        hstem
        154 118 vstem
        140 return
      </CharString>
      <CharString index="225">
        hstem
        34 460 vstem
        return
      </CharString>
      <CharString index="226">
        -202 -12 82 return
      </CharString>
      <CharString index="227">
        78 hstemhm
        31 125 -49 123 hintmask 11101000
        235 return
      </CharString>
      <CharString index="228">
        -54 21 -21 253 124 151 124 return
      </CharString>
      <CharString index="229">
        hlineto
        hintmask 11011110
        return
      </CharString>
      <CharString index="230">
        -50 21 -21 return
      </CharString>
</ttFont>
